<svg xmlns="http://www.w3.org/2000/svg" viewBox="0 0 64 64">
  <rect width="64" height="64" fill="#ffffff"/>
  <path
    fill="#0a0a0a"
    stroke="#0a0a0a"
    stroke-linejoin="round"
    stroke-width="24"
    transform="translate(11 52) scale(.06)"
    d="M147-1 27 5C7.668 5-2 .668-2-8S9-24.332 31-31c40-12 68.668-37.668 86-77 63.332-146 125.668-302.668 187-470 8.668-21.332 13-36.668 13-46 0-8 .332-12 1-12 23.332-8 37.332-14.668 42-20 2-2.668 3.668-4.832 5-6.5s2.332-3.168 3-4.5c3.332-6 5.668-9 7-9 3.332 0 6.668 4.668 10 14 24.668 77.332 51.832 160.5 81.5 249.5S528.332-228.668 563-128c12.668 36.668 26.832 61.5 42.5 74.5S640.332-32 663-28s34 11.668 34 23c0 6.668-9.668 10-29 10L529-1 424 0c-19.332 0-29-4-29-12 0-10 11-16.332 33-19 40.668-6.668 61-21.668 61-45 0-18.668-12.668-71-38-157-2-7.332-11-11-27-11H233c-7.332 0-13 6-17 18-26.668 76-40 122-40 138 0 14.668 5.5 26.832 16.5 36.5S218.668-34.332 238-29s29 11.668 29 19c0 7.332-9.668 11-29 11Zm94-293c0 4.668 7 7 21 7h155c9.332 0 14-1.668 14-5l-2-10-79-239c-4-12-6.668-18-8-18-2 0-5 5.668-9 17l-90 240Z"
  />
</svg>
